<?xml version="1.0" encoding="UTF-8" standalone="no"?>
<svg
   version="1.1"
   x="0px"
   y="0px"
   viewBox="0 0 86.834 62.691376"
   enable-background="new 0 0 100 100"
   xml:space="preserve"
   id="svg18"
   width="86.834"
   height="62.691376"
   xmlns="http://www.w3.org/2000/svg"
   xmlns:svg="http://www.w3.org/2000/svg"><defs
     id="defs22" /><path
     d="m 82.551,60.191377 v -9.668 c 0.217,-0.262 0.401,-0.554 0.541,-0.873 1.901,-0.458 3.325,-2.181 3.325,-4.209 0,-1.654 -0.943,-3.13 -2.36,-3.856 -0.007,-2.333 -1.906,-4.228 -4.24,-4.228 -1.166,0 -2.23,0.465 -3.001,1.24 -0.499,-1.54 -1.946,-2.656 -3.649,-2.656 -1.332,0 -2.539,0.69 -3.229,1.786 -0.654,0.084 -1.274,0.315 -1.821,0.677 -0.442,-0.141 -0.904,-0.213 -1.366,-0.213 -2.527,0 -4.583,2.056 -4.583,4.583 0,0.429 0.06,0.851 0.176,1.256 -0.972,0.676 -1.593,1.798 -1.593,3.042 0,1.888 1.417,3.45 3.243,3.68 0.777,1.264 2.052,2.123 3.507,2.387 v 7.053 h -6.888 l -3.174,-39.251 h 3.686 v -5.595 h -3.791 v -12.405 h 6.95 L 22.184499,0.01757 22.216,2.941377 h 6.534 v 12.405 h -3.375 v 5.595 h 3.27 l -3.173,39.25 h -6.92 v -8.938 c 0.378,-0.248 0.732,-0.534 1.054,-0.859 0.64,0.355 1.363,0.547 2.102,0.547 2.413,0 4.375,-1.963 4.375,-4.375 0,-1.858 -1.168,-3.48 -2.866,-4.102 -0.057,-0.118 -0.121,-0.233 -0.191,-0.345 0.136,-0.451 0.204,-0.91 0.204,-1.371 0,-2.821 -2.295,-5.116 -5.115,-5.116 -1.747,0 -3.33,0.881 -4.26,2.311 -0.462,-0.015 -0.905,0.051 -1.336,0.182 -0.853,-0.903 -2.043,-1.434 -3.308,-1.434 -2.381,0 -4.345,1.824 -4.566,4.149 -2.233,0.552 -3.895,2.574 -3.895,4.976 0,2.826 2.299,5.125 5.125,5.125 0.445,0 0.889,-0.061 1.32,-0.179 0.497,0.871 1.239,1.562 2.117,2.015 v 7.414 H 0 v 2.5 h 86.834 v -2.5 z m -5.858,-9.49 c 0.118,0.004 0.236,0.012 0.355,0.006 0.69,0.721 1.651,1.145 2.663,1.145 0.115,0 0.227,-0.015 0.339,-0.024 v 8.364 h -3.357 z m -10.779,-1.672 -0.363,-0.891 -1.092,0.143 c -0.667,0 -1.209,-0.542 -1.209,-1.209 0,-0.579 0.414,-1.076 0.985,-1.184 l 1.89,-0.354 -1.091,-1.583 c -0.24,-0.349 -0.367,-0.756 -0.367,-1.177 0,-1.148 0.935,-2.083 2.083,-2.083 0.34,0 0.668,0.084 0.975,0.251 l 0.82,0.445 0.66,-0.66 c 0.346,-0.346 0.805,-0.536 1.257,-0.536 h 10e-4 l 1.146,0.082 0.304,-0.916 c 0.182,-0.548 0.686,-0.916 1.254,-0.916 0.735,0 1.333,0.598 1.333,1.333 0,0.089 -0.017,0.194 -0.053,0.333 l -0.246,0.938 0.848,0.471 c 0.178,0.099 0.325,0.208 0.438,0.327 l 0.454,0.477 0.649,-0.104 c 0.077,-0.013 0.155,-0.021 0.235,-0.023 l 1.079,0.001 0.219,-0.977 c 0.18,-0.8 0.876,-1.359 1.693,-1.359 0.96,0 1.74,0.78 1.74,1.74 0,0.135 -0.025,0.286 -0.079,0.475 l -0.376,1.309 1.336,0.263 c 0.857,0.168 1.479,0.925 1.479,1.798 0,0.993 -0.811,1.813 -1.807,1.828 l -1.057,0.016 -0.16,1.045 c -0.091,0.592 -0.588,1.021 -1.182,1.021 -0.428,0 -0.815,-0.229 -1.035,-0.61 l -0.466,-0.806 -0.905,0.215 c -0.4,0.095 -0.659,0.088 -1.088,-0.045 l -0.461,-0.142 -0.437,0.205 c -0.71,0.332 -1.491,-0.126 -1.63,-0.831 l -0.359,-1.612 -1.48,0.766 -0.797,0.372 0.113,1.141 c 0,1.505 -1.225,2.729 -2.729,2.729 -1.111,-0.003 -2.101,-0.671 -2.522,-1.706 z m 4.086,3.959 c 1.357,-0.427 2.48,-1.387 3.111,-2.64 0.332,0.178 0.702,0.288 1.082,0.355 v 9.487 H 70 Z m -39.198,-27.707 9.057,3.867 -9.704,4.144 z m 25.128,8.011 -9.704,-4.144 9.056,-3.866 z m 0.227,2.815 0.259,3.209 H 29.668 l 0.259,-3.21 13.115,-5.599 z m -26.85,7.673 0.159,-1.964 h 27.152 l 0.159,1.964 -13.735,5.229 z m 10.222,6.566 -11.095,4.224 0.663,-8.195 z m 17.457,-3.971 0.663,8.196 -11.096,-4.225 z m -2.152,-43.434 -0.103797,12.414599 h -23.584 L 31.25,2.941377 Z m 0.097,18 0.139,1.713 -12.027,5.135 -12.027,-5.135 0.137,-1.713 z m -26.72,36.389 14.831,-5.646 14.83,5.646 0.231,2.861 H 27.98 Z m -12.16,2.861 h -0.418 v -7.906 c 0.141,-0.014 0.279,-0.039 0.418,-0.062 z m -7.368,-13.021 -1.457,0.882 c -0.427,0.259 -0.882,0.39 -1.352,0.39 -1.446,-10e-4 -2.624,-1.179 -2.624,-2.626 0,-1.424 1.14,-2.587 2.554,-2.624 l 1.667,0.006 -0.304,-1.498 c -0.028,-0.14 -0.042,-0.281 -0.042,-0.423 0,-1.15 0.936,-2.086 2.086,-2.086 0.748,0 1.441,0.418 1.811,1.09 l 0.649,1.183 1.129,-0.737 c 0.287,-0.187 0.615,-0.285 0.95,-0.285 0.131,0 0.277,0.023 0.461,0.075 l 1.08,0.301 0.417,-1.04 c 0.4,-0.999 1.346,-1.645 2.409,-1.645 1.442,0 2.615,1.174 2.615,2.616 0,0.351 -0.083,0.694 -0.254,1.05 l -0.393,0.818 0.656,0.627 c 0.153,0.146 0.259,0.331 0.306,0.535 l 0.186,0.802 0.81,0.146 c 0.893,0.161 1.541,0.935 1.541,1.839 0,1.034 -0.841,1.875 -1.875,1.875 -0.526,0 -1.016,-0.221 -1.38,-0.622 l -1.092,-1.202 -0.882,1.363 c -0.744,1.149 -1.998,1.836 -3.354,1.836 -0.097,0 -0.19,-0.017 -0.284,-0.029 l -0.775,-0.095 -0.427,0.413 c -0.502,0.484 -1.158,0.752 -1.847,0.752 -1.225,0 -2.286,-0.836 -2.579,-2.033 z m 3.129,6.175 c 0.453,-0.013 0.895,-0.086 1.321,-0.213 v 7.059 h -1.321 z"
     id="path2" /><path
     d="m 75.166,11.937377 c 0,10e-4 0,0.003 0,0.005 h 0.001 2.499 0.001 c 0,-0.001 -0.001,-0.003 -0.001,-0.005 0.003,-1.422 1.161,-2.579 2.583,-2.579 v -2.5 c -1.537,0 -2.899,0.7 -3.833,1.781 -0.933,-1.081 -2.295,-1.781 -3.832,-1.781 v 2.5 c 1.422,0 2.58,1.157 2.582,2.579 z"
     id="path8" /><path
     d="m 81.418,19.686377 c 0,0.002 0,0.003 0,0.005 h 10e-4 2.499 10e-4 c 0,-10e-4 -10e-4,-0.003 -10e-4,-0.005 0.003,-1.422 1.161,-2.579 2.583,-2.579 v -2.5 c -1.537,0 -2.899,0.7 -3.833,1.781 -0.933,-1.082 -2.295,-1.781 -3.832,-1.781 v 2.5 c 1.422,0.001 2.58,1.157 2.582,2.579 z"
     id="path10" /><path
     d="m 82.551,60.191377 v -9.668 c 0.217,-0.262 0.401,-0.554 0.541,-0.873 1.901,-0.458 3.325,-2.181 3.325,-4.209 0,-1.654 -0.943,-3.13 -2.36,-3.856 -0.007,-2.333 -1.906,-4.228 -4.24,-4.228 -1.166,0 -2.23,0.465 -3.001,1.24 -0.499,-1.54 -1.946,-2.656 -3.649,-2.656 -1.332,0 -2.539,0.69 -3.229,1.786 -0.654,0.084 -1.274,0.315 -1.821,0.677 -0.442,-0.141 -0.904,-0.213 -1.366,-0.213 -2.527,0 -4.583,2.056 -4.583,4.583 0,0.429 0.06,0.851 0.176,1.256 -0.972,0.676 -1.593,1.798 -1.593,3.042 0,1.888 1.417,3.45 3.243,3.68 0.777,1.264 2.052,2.123 3.507,2.387 v 7.053 h -6.888 l -3.174,-39.251 h 3.686 v -5.595 h -3.791 v -12.405 h 6.95 L 64.34836,0.01757 22.200567,0 22.128217,2.976484 h 6.534 L 28.75,15.346377 h -3.375 v 5.595 h 3.27 l -3.173,39.25 h -6.92 v -8.938 c 0.378,-0.248 0.732,-0.534 1.054,-0.859 0.64,0.355 1.363,0.547 2.102,0.547 2.413,0 4.375,-1.963 4.375,-4.375 0,-1.858 -1.168,-3.48 -2.866,-4.102 -0.057,-0.118 -0.121,-0.233 -0.191,-0.345 0.136,-0.451 0.204,-0.91 0.204,-1.371 0,-2.821 -2.295,-5.116 -5.115,-5.116 -1.747,0 -3.33,0.881 -4.26,2.311 -0.462,-0.015 -0.905,0.051 -1.336,0.182 -0.853,-0.903 -2.043,-1.434 -3.308,-1.434 -2.381,0 -4.345,1.824 -4.566,4.149 -2.233,0.552 -3.895,2.574 -3.895,4.976 0,2.826 2.299,5.125 5.125,5.125 0.445,0 0.889,-0.061 1.32,-0.179 0.497,0.871 1.239,1.562 2.117,2.015 v 7.414 H 0 v 2.5 h 86.834 v -2.5 z m -5.858,-9.49 c 0.118,0.004 0.236,0.012 0.355,0.006 0.69,0.721 1.651,1.145 2.663,1.145 0.115,0 0.227,-0.015 0.339,-0.024 v 8.364 h -3.357 z m -10.779,-1.672 -0.363,-0.891 -1.092,0.143 c -0.667,0 -1.209,-0.542 -1.209,-1.209 0,-0.579 0.414,-1.076 0.985,-1.184 l 1.89,-0.354 -1.091,-1.583 c -0.24,-0.349 -0.367,-0.756 -0.367,-1.177 0,-1.148 0.935,-2.083 2.083,-2.083 0.34,0 0.668,0.084 0.975,0.251 l 0.82,0.445 0.66,-0.66 c 0.346,-0.346 0.805,-0.536 1.257,-0.536 h 10e-4 l 1.146,0.082 0.304,-0.916 c 0.182,-0.548 0.686,-0.916 1.254,-0.916 0.735,0 1.333,0.598 1.333,1.333 0,0.089 -0.017,0.194 -0.053,0.333 l -0.246,0.938 0.848,0.471 c 0.178,0.099 0.325,0.208 0.438,0.327 l 0.454,0.477 0.649,-0.104 c 0.077,-0.013 0.155,-0.021 0.235,-0.023 l 1.079,0.001 0.219,-0.977 c 0.18,-0.8 0.876,-1.359 1.693,-1.359 0.96,0 1.74,0.78 1.74,1.74 0,0.135 -0.025,0.286 -0.079,0.475 l -0.376,1.309 1.336,0.263 c 0.857,0.168 1.479,0.925 1.479,1.798 0,0.993 -0.811,1.813 -1.807,1.828 l -1.057,0.016 -0.16,1.045 c -0.091,0.592 -0.588,1.021 -1.182,1.021 -0.428,0 -0.815,-0.229 -1.035,-0.61 l -0.466,-0.806 -0.905,0.215 c -0.4,0.095 -0.659,0.088 -1.088,-0.045 l -0.461,-0.142 -0.437,0.205 c -0.71,0.332 -1.491,-0.126 -1.63,-0.831 l -0.359,-1.612 -1.48,0.766 -0.797,0.372 0.113,1.141 c 0,1.505 -1.225,2.729 -2.729,2.729 -1.111,-0.003 -2.101,-0.671 -2.522,-1.706 z m 4.086,3.959 c 1.357,-0.427 2.48,-1.387 3.111,-2.64 0.332,0.178 0.702,0.288 1.082,0.355 v 9.487 H 70 Z m -39.198,-27.707 9.057,3.867 -9.704,4.144 z m 25.128,8.011 -9.704,-4.144 9.056,-3.866 z m 0.227,2.815 0.259,3.209 H 29.668 l 0.259,-3.21 13.115,-5.599 z m -26.85,7.673 0.159,-1.964 h 27.152 l 0.159,1.964 -13.735,5.229 z m 10.222,6.566 -11.095,4.224 0.663,-8.195 z m 17.457,-3.971 0.663,8.196 -11.096,-4.225 z m -2.152,-43.434 -0.103797,12.414599 h -23.584 L 31.25,2.941377 Z m 0.097,18 0.139,1.713 -12.027,5.135 -12.027,-5.135 0.137,-1.713 z m -26.72,36.389 14.831,-5.646 14.83,5.646 0.231,2.861 H 27.98 Z m -12.16,2.861 h -0.418 v -7.906 c 0.141,-0.014 0.279,-0.039 0.418,-0.062 z m -7.368,-13.021 -1.457,0.882 c -0.427,0.259 -0.882,0.39 -1.352,0.39 -1.446,-10e-4 -2.624,-1.179 -2.624,-2.626 0,-1.424 1.14,-2.587 2.554,-2.624 l 1.667,0.006 -0.304,-1.498 c -0.028,-0.14 -0.042,-0.281 -0.042,-0.423 0,-1.15 0.936,-2.086 2.086,-2.086 0.748,0 1.441,0.418 1.811,1.09 l 0.649,1.183 1.129,-0.737 c 0.287,-0.187 0.615,-0.285 0.95,-0.285 0.131,0 0.277,0.023 0.461,0.075 l 1.08,0.301 0.417,-1.04 c 0.4,-0.999 1.346,-1.645 2.409,-1.645 1.442,0 2.615,1.174 2.615,2.616 0,0.351 -0.083,0.694 -0.254,1.05 l -0.393,0.818 0.656,0.627 c 0.153,0.146 0.259,0.331 0.306,0.535 l 0.186,0.802 0.81,0.146 c 0.893,0.161 1.541,0.935 1.541,1.839 0,1.034 -0.841,1.875 -1.875,1.875 -0.526,0 -1.016,-0.221 -1.38,-0.622 l -1.092,-1.202 -0.882,1.363 c -0.744,1.149 -1.998,1.836 -3.354,1.836 -0.097,0 -0.19,-0.017 -0.284,-0.029 l -0.775,-0.095 -0.427,0.413 c -0.502,0.484 -1.158,0.752 -1.847,0.752 -1.225,0 -2.286,-0.836 -2.579,-2.033 z m 3.129,6.175 c 0.453,-0.013 0.895,-0.086 1.321,-0.213 v 7.059 h -1.321 z"
     id="path335" /></svg>
